<svg width="33" height="32" viewBox="0 0 33 32" fill="none" xmlns="http://www.w3.org/2000/svg">
<path d="M16.2226 8.05584C11.714 8.05584 8.27847 11.4904 8.27847 16C8.27847 20.5096 11.714 23.9442 16.2226 23.9442C20.7313 23.9442 24.1668 20.5096 24.1668 16C24.1668 11.4904 20.7313 8.05584 16.2226 8.05584ZM16.2226 21.2961C13.309 21.2961 10.9265 18.9213 10.9265 16C10.9265 13.0787 13.3019 10.7039 16.2226 10.7039C19.1433 10.7039 21.5187 13.0787 21.5187 16C21.5187 18.9213 19.1362 21.2961 16.2226 21.2961ZM26.8148 8.05584C26.8148 9.11234 25.216 9.37987 24.1668 9.37987C23.1105 9.37987 22.8428 9.10525 22.8428 8.05584C22.8428 7.00643 23.1176 5.40778 24.1668 5.40778C25.216 5.40778 26.8148 7.00643 26.8148 8.05584ZM32.111 9.37987C31.9904 6.83433 31.3273 4.61748 29.4629 2.75973C27.6056 0.901987 25.3877 0.239309 22.8428 0.111677C20.2198 -0.0372258 12.2254 -0.0372258 9.6025 0.111677C7.06462 0.232218 4.84678 0.901987 2.98236 2.75973C1.11794 4.61748 0.461911 6.83433 0.334309 9.37987C0.185439 12.0034 0.185439 19.9966 0.334309 22.6201C0.454822 25.1657 1.11794 27.3825 2.98236 29.2403C4.84678 31.098 7.05753 31.7607 9.6025 31.8883C12.2254 32.0372 20.2198 32.0372 22.8428 31.8883C25.3877 31.7678 27.6056 31.1051 29.4629 29.2403C31.3202 27.3825 31.9834 25.1657 32.111 22.6201C32.2598 19.9966 32.2598 12.0034 32.111 9.37987ZM28.1389 25.2682C27.5859 26.658 26.8874 27.3561 25.4908 27.9162C23.3996 28.7458 18.5337 29.2403 16.2226 29.2403C13.9116 29.2403 9.03862 28.7388 6.95444 27.9162C5.56499 27.3632 4.86642 26.665 4.30639 25.2682C3.47697 23.1765 2.98236 18.3115 2.98236 16C2.98236 13.6885 3.48406 8.81646 4.30639 6.73181C4.85933 5.34205 5.5579 4.64392 6.95444 4.08376C9.04571 3.25415 13.9116 2.75973 16.2226 2.75973C18.5337 2.75973 23.4066 3.26125 25.4908 4.08376C26.8803 4.63683 27.5788 5.33496 28.1389 6.73181C28.9683 8.82355 29.4629 13.6885 29.4629 16C29.4629 18.3115 28.9683 23.1835 28.1389 25.2682Z" fill="white"/>
</svg>
