<svg width="33" height="33" viewBox="0 0 33 33" fill="none" xmlns="http://www.w3.org/2000/svg">
<path d="M32.1094 28.6622V3.77333C32.1094 1.81777 30.504 0.217773 28.5449 0.217773H3.67382C1.62938 0.217773 0.109375 1.73422 0.109375 3.77333V28.6622C0.109375 30.7031 1.62938 32.2178 3.67382 32.2178H28.5449C29.4883 32.2164 30.3928 31.8416 31.0607 31.1754C31.7286 30.5091 32.1056 29.6056 32.1094 28.6622ZM25.3254 19.0747C25.3254 19.0747 27.3378 21.0604 27.8338 21.9813C27.848 22.0009 27.8534 22.0187 27.8587 22.0258C28.0596 22.3636 28.1112 22.6302 28.0098 22.8258C27.8427 23.1511 27.2738 23.3147 27.08 23.3289H23.5263C23.2774 23.3289 22.7618 23.2649 22.136 22.8329C21.656 22.4987 21.1814 21.9458 20.7192 21.4071C20.0294 20.6071 19.432 19.9138 18.8312 19.9138C18.7549 19.9136 18.6792 19.9262 18.6072 19.9511C18.1503 20.0969 17.5707 20.7458 17.5707 22.4791C17.5707 23.0213 17.144 23.3307 16.8418 23.3307H15.2134C14.6587 23.3307 11.7698 23.1369 9.2116 20.4364C6.07204 17.1298 3.25249 10.4969 3.2276 10.4382C3.04982 10.0098 3.41782 9.77688 3.81782 9.77688H7.40893C7.89071 9.77688 8.04537 10.0684 8.1556 10.3298C8.28004 10.6267 8.74937 11.8249 9.51737 13.1724C10.7672 15.3644 11.5369 16.2569 12.1503 16.2569C12.2649 16.2562 12.3776 16.2262 12.4774 16.1698C13.2792 15.7271 13.1298 12.8684 13.0943 12.2782C13.0943 12.1662 13.0925 11 12.6836 10.44C12.3885 10.0347 11.8889 9.88 11.5867 9.82133C11.7099 9.65152 11.8721 9.51374 12.0596 9.41955C12.6089 9.14577 13.5992 9.10666 14.584 9.10666H15.1316C16.2 9.12088 16.4774 9.19022 16.8632 9.288C17.6436 9.47466 17.6596 9.98133 17.5903 11.7058C17.5707 12.1964 17.5494 12.7529 17.5494 13.4053C17.5494 13.5458 17.544 13.7004 17.544 13.8604C17.5192 14.7422 17.4907 15.7396 18.1129 16.1484C18.1935 16.1988 18.2864 16.2259 18.3814 16.2267C18.5983 16.2267 19.2472 16.2267 21.0054 13.2098C21.7787 11.8782 22.3743 10.3067 22.4152 10.1893C22.4773 10.0625 22.5672 9.95126 22.6783 9.864C22.7693 9.8167 22.8708 9.79287 22.9734 9.79466H27.1956C27.6578 9.79466 27.9707 9.864 28.0294 10.04C28.1307 10.3227 28.0098 11.1849 26.0809 13.7911L25.2223 14.9289C23.4729 17.2187 23.4729 17.336 25.3254 19.0747Z" fill="white"/>
</svg>
